<svg xmlns="http://www.w3.org/2000/svg" id="Layer_2" data-name="Layer 2" viewBox="0 0 43.19 64.43"><defs><style>      .cls-1 {        fill: none;        stroke: #202fcb;        stroke-linecap: round;        stroke-miterlimit: 10;      }      .cls-2 {        fill: #202fcb;        stroke-width: 0px;      }    </style></defs><g id="Layer_1-2" data-name="Layer 1"><g><path class="cls-2" d="m43.01,23.69c-.32-.79-1.05-1.34-1.9-1.43l-12.64-1.44c-.11-.01-.16-.08-.19-.13s-.05-.14,0-.23L37.54,3.55c.4-.73.39-1.6-.04-2.31-.43-.72-1.18-1.15-2.01-1.15h-15.39l-3.26-.09c-1.17,0-2.17.88-2.32,2.04l-3.58,27.84c-.16,1.23.68,2.37,1.9,2.6l6.05,1.1c.09.02.14.07.17.12.03.04.05.11.03.2l-7.1,23.14c-.22.72-.1,1.47.34,2.06.45.61,1.17.97,1.92.97.71,0,1.35-.31,1.8-.88l26.64-33.15c.53-.66.66-1.57.34-2.36Zm-1.15,1.7L15.22,58.54c-.89,1.11-2.66.17-2.24-1.19l7.1-23.14c.23-.74-.24-1.51-1-1.65l-6.05-1.1c-.68-.12-1.14-.75-1.05-1.44L15.55,2.17c.08-.66.65-1.15,1.32-1.13l3.2.09h15.42c.98,0,1.61,1.05,1.13,1.91l-9.25,16.91c-.44.81.08,1.8.99,1.91l12.64,1.44c1.01.11,1.5,1.3.86,2.09Z"></path><line class="cls-1" x1="7.6" y1="39.72" x2="6.91" y2="59.55"></line><line class="cls-1" x1=".5" y1="45.72" x2="2.16" y2="58.76"></line><line class="cls-1" x1="33.74" y1="47.38" x2="19.8" y2="62.3"></line><line class="cls-1" x1="31.89" y1="58.47" x2="24.22" y2="63.93"></line></g></g></svg>